<svg width="84" height="54" viewBox="0 0 84 54" fill="none" xmlns="http://www.w3.org/2000/svg">
<path d="M24.0693 29.9028H10.2881V39.2339H26.4619V45H3.11035V10.1641H26.4141V15.978H10.2881V24.2803H24.0693V29.9028ZM39.2861 36.5542L44.0952 19.1123H51.3208L42.5879 45H35.9844L27.2515 19.1123H34.4771L39.2861 36.5542ZM65.9634 45.4785C62.1672 45.4785 59.0728 44.3141 56.6802 41.9854C54.3035 39.6566 53.1152 36.5542 53.1152 32.6782V32.0083C53.1152 29.4084 53.6177 27.0876 54.6226 25.0459C55.6274 22.9883 57.047 21.4092 58.8813 20.3086C60.7316 19.1921 62.8371 18.6338 65.1978 18.6338C68.7388 18.6338 71.5221 19.7503 73.5479 21.9834C75.5895 24.2165 76.6104 27.3826 76.6104 31.4819V34.3052H60.1255C60.3488 35.9959 61.0187 37.3517 62.1353 38.3726C63.2677 39.3934 64.6953 39.9038 66.418 39.9038C69.0817 39.9038 71.1632 38.9388 72.6626 37.0088L76.0601 40.813C75.0233 42.2804 73.6196 43.4289 71.8491 44.2583C70.0786 45.0718 68.1167 45.4785 65.9634 45.4785ZM65.1738 24.2324C63.8021 24.2324 62.6855 24.695 61.8242 25.6201C60.9788 26.5452 60.4365 27.8691 60.1973 29.5918H69.8154V29.0415C69.7835 27.5103 69.3688 26.3299 68.5713 25.5005C67.7738 24.6551 66.6413 24.2324 65.1738 24.2324Z" fill="black"/>
<circle cx="73" cy="10" r="4" fill="#F9B851"/>
<circle cx="64" cy="10" r="4" fill="#F9B851"/>
</svg>
